<?xml version="1.0" encoding="utf-8"?>
<!-- Generator: Adobe Illustrator 27.0.0, SVG Export Plug-In . SVG Version: 6.00 Build 0)  -->
<svg version="1.1" id="Group_191" xmlns="http://www.w3.org/2000/svg" xmlns:xlink="http://www.w3.org/1999/xlink" x="0px" y="0px"
	 viewBox="0 0 51 51" style="enable-background:new 0 0 51 51;" xml:space="preserve">
<style type="text/css">
	.st0{fill:#FFFFFF;}
</style>
<g id="right-arrow_00000048497264284352509520000007971252398627994045_" transform="translate(14.365 20.16)">
	<g id="Group_189_00000062911273837876758530000016272065436159548082_">
		<path id="Path_85_00000086651685602157398590000011513559740155691410_" class="st0" d="M-4.8,6L-4.8,6l4.6,4.5
			c0.4,0.3,0.9,0.3,1.2,0s0.3-0.9,0-1.2l-3.1-3.1h28.5c0.5,0,0.9-0.4,0.9-0.8c0-0.5-0.4-0.9-0.8-0.9c0,0,0,0-0.1,0H-2.1l3.1-3
			c0.3-0.4,0.3-0.9,0-1.2S0.1,0-0.2,0.3l-4.6,4.5l0,0C-5.1,5.1-5.1,5.7-4.8,6L-4.8,6z"/>
	</g>
</g>
</svg>
