<?xml version="1.0" encoding="utf-8"?>
<!-- Generator: Adobe Illustrator 27.0.0, SVG Export Plug-In . SVG Version: 6.00 Build 0)  -->
<svg version="1.1" id="Group_331" xmlns="http://www.w3.org/2000/svg" xmlns:xlink="http://www.w3.org/1999/xlink" x="0px" y="0px"
	 viewBox="0 0 338.2 100.8" style="enable-background:new 0 0 338.2 100.8;" xml:space="preserve">
<style type="text/css">
	.st0{fill:#213142;}
	.st1{fill:#618EA8;}
	.st2{fill:#6E7577;}
</style>
<g>
	<polygon class="st0" points="73.7,37 73.7,99.4 95,99.4 95,71 130.7,100 130.7,68.2 91.6,37 	"/>
	<polygon class="st0" points="130.6,0 26.5,0 25.9,0 1.5,25 1.4,25.1 38.8,25.1 38.8,99.4 60.6,99.4 60.6,25.1 130.6,25.1 	"/>
	<rect x="130.6" y="25" class="st1" width="25" height="25"/>
	<g>
		<g>
			<path class="st2" d="M193.4,25.3v2.6h-3.9v11h-2.9v-11h-3.9v-2.6H193.4z"/>
			<path class="st2" d="M196.9,27.1c1.4-1.4,3.2-2.1,5.3-2.1c2.1,0,3.8,0.7,5.3,2.1c1.4,1.4,2.2,3.1,2.2,5c0,2-0.7,3.6-2.2,5
				s-3.2,2.1-5.3,2.1c-2.1,0-3.8-0.7-5.3-2.1c-1.4-1.4-2.2-3.1-2.2-5C194.8,30.1,195.5,28.5,196.9,27.1z M199.1,35.3
				c0.9,0.9,1.9,1.3,3.1,1.3s2.3-0.4,3.1-1.3c0.9-0.9,1.3-1.9,1.3-3.2c0-1.3-0.4-2.3-1.3-3.2s-1.9-1.3-3.1-1.3s-2.3,0.4-3.1,1.3
				c-0.9,0.9-1.3,1.9-1.3,3.2C197.8,33.4,198.3,34.4,199.1,35.3z"/>
			<path class="st2" d="M218.9,25.3c1.4,0,2.6,0.4,3.5,1.3c0.9,0.9,1.4,2,1.4,3.3s-0.5,2.4-1.4,3.3c-0.9,0.9-2.1,1.3-3.5,1.3h-2.8
				v4.5h-2.9V25.3H218.9z M216.1,27.9v3.9h2.7c0.6,0,1.1-0.2,1.5-0.6c0.4-0.4,0.6-0.8,0.6-1.4c0-0.5-0.2-1-0.6-1.4
				c-0.4-0.4-0.9-0.6-1.5-0.6H216.1z"/>
			<path class="st2" d="M244.3,25.3v13.7h-2.5l-6.7-8.7v8.7H232V25.3h2.5l6.7,8.7v-8.7H244.3z"/>
			<path class="st2" d="M249.9,27.1c1.4-1.4,3.2-2.1,5.3-2.1c2.1,0,3.8,0.7,5.3,2.1c1.4,1.4,2.2,3.1,2.2,5c0,2-0.7,3.6-2.2,5
				c-1.4,1.4-3.2,2.1-5.3,2.1c-2.1,0-3.8-0.7-5.3-2.1s-2.2-3.1-2.2-5C247.8,30.1,248.5,28.5,249.9,27.1z M252.1,35.3
				c0.9,0.9,1.9,1.3,3.1,1.3c1.2,0,2.3-0.4,3.1-1.3c0.9-0.9,1.3-1.9,1.3-3.2c0-1.3-0.4-2.3-1.3-3.2c-0.9-0.9-1.9-1.3-3.1-1.3
				c-1.2,0-2.3,0.4-3.1,1.3c-0.9,0.9-1.3,1.9-1.3,3.2C250.8,33.4,251.2,34.4,252.1,35.3z"/>
			<path class="st2" d="M274.8,25.3v2.6h-3.9v11h-2.9v-11H264v-2.6H274.8z"/>
			<path class="st2" d="M285.6,25.3c0.6,0.2,1.2,0.4,1.6,0.7c0.4,0.3,0.8,0.5,1.1,0.8s0.6,0.5,0.7,0.7l0.2,0.3l-1.9,1.9
				c0-0.1-0.1-0.1-0.2-0.2c-0.1-0.1-0.2-0.2-0.4-0.5c-0.2-0.2-0.5-0.4-0.8-0.6c-0.3-0.2-0.6-0.3-1.1-0.5c-0.4-0.1-0.9-0.2-1.4-0.2
				c-1.3,0-2.3,0.4-3.2,1.3c-0.9,0.9-1.3,1.9-1.3,3.2c0,1.3,0.4,2.3,1.3,3.2c0.9,0.9,1.9,1.3,3.2,1.3c0.5,0,1-0.1,1.4-0.2
				c0.5-0.1,0.8-0.3,1.1-0.5c0.3-0.2,0.6-0.4,0.8-0.6s0.4-0.4,0.5-0.5l0.2-0.2l1.8,1.9c-0.1,0.1-0.1,0.2-0.2,0.3
				c-0.1,0.1-0.3,0.3-0.7,0.7c-0.4,0.3-0.7,0.6-1.2,0.8c-0.4,0.2-0.9,0.5-1.6,0.7c-0.7,0.2-1.4,0.3-2.1,0.3c-2.1,0-3.9-0.7-5.3-2.1
				c-1.4-1.4-2.2-3.1-2.2-5c0-2,0.7-3.6,2.2-5c1.4-1.4,3.2-2.1,5.3-2.1C284.3,25,285,25.1,285.6,25.3z"/>
			<path class="st2" d="M304.2,38.9h-2.9v-5.6h-5.9v5.6h-2.9V25.3h2.9v5.5h5.9v-5.5h2.9V38.9z"/>
			<path class="st2" d="M194.3,61.4V64H184V50.3h10.1V53H187v2.7h5.6v2.6H187v3H194.3z"/>
			<path class="st2" d="M210,50.3V64h-2.5l-6.7-8.7V64h-2.9V50.3h2.5l6.7,8.7v-8.7H210z"/>
			<path class="st2" d="M227,56.6v5.1c-0.1,0.1-0.1,0.2-0.2,0.3c-0.1,0.1-0.4,0.3-0.7,0.6c-0.4,0.3-0.8,0.6-1.2,0.8
				c-0.4,0.2-1,0.4-1.7,0.6c-0.7,0.2-1.4,0.3-2.1,0.3c-2.1,0-3.8-0.7-5.3-2.1c-1.4-1.4-2.2-3.1-2.2-5c0-2,0.7-3.6,2.2-5
				c1.4-1.4,3.2-2.1,5.3-2.1c0.7,0,1.4,0.1,2.1,0.3s1.2,0.4,1.6,0.7c0.4,0.3,0.8,0.5,1.1,0.8c0.3,0.3,0.6,0.5,0.7,0.7l0.2,0.3
				l-1.9,1.9c0-0.1-0.1-0.1-0.2-0.2s-0.2-0.2-0.4-0.5c-0.2-0.2-0.5-0.4-0.8-0.6c-0.3-0.2-0.6-0.3-1.1-0.5c-0.4-0.1-0.9-0.2-1.4-0.2
				c-1.3,0-2.3,0.4-3.2,1.3c-0.9,0.9-1.3,1.9-1.3,3.2c0,1.3,0.4,2.3,1.3,3.2c0.9,0.9,1.9,1.3,3.2,1.3c0.6,0,1.2-0.1,1.7-0.3
				c0.5-0.2,0.9-0.4,1.1-0.5l0.3-0.2v-1.9h-2.4v-2.1H227z"/>
			<path class="st2" d="M231,50.3h2.9V64H231V50.3z"/>
			<path class="st2" d="M250.4,50.3V64h-2.5l-6.7-8.7V64h-2.9V50.3h2.5l6.7,8.7v-8.7H250.4z"/>
			<path class="st2" d="M265,61.4V64h-10.3V50.3h10.1V53h-7.1v2.7h5.6v2.6h-5.6v3H265z"/>
			<path class="st2" d="M278.8,61.4V64h-10.3V50.3h10.1V53h-7.1v2.7h5.6v2.6h-5.6v3H278.8z"/>
			<path class="st2" d="M282.3,50.3h6.1c1.4,0,2.5,0.4,3.4,1.3c0.9,0.9,1.3,1.9,1.3,3.2c0,0.5-0.1,1.1-0.3,1.5
				c-0.2,0.5-0.4,0.9-0.6,1.2c-0.2,0.3-0.5,0.5-0.7,0.8c-0.2,0.2-0.4,0.4-0.6,0.4l-0.2,0.1l2.9,5.2h-3.1l-2.6-4.8h-2.5V64h-2.9V50.3
				z M289.6,53.5c-0.4-0.4-0.8-0.5-1.3-0.5h-3v3.6h3c0.5,0,1-0.2,1.3-0.5c0.4-0.3,0.5-0.8,0.5-1.3C290.1,54.3,289.9,53.8,289.6,53.5
				z"/>
			<path class="st2" d="M296.9,50.3h2.9V64h-2.9V50.3z"/>
			<path class="st2" d="M316.4,50.3V64h-2.5l-6.7-8.7V64h-2.9V50.3h2.5l6.7,8.7v-8.7H316.4z"/>
			<path class="st2" d="M333.3,56.6v5.1c-0.1,0.1-0.1,0.2-0.2,0.3c-0.1,0.1-0.4,0.3-0.7,0.6c-0.4,0.3-0.8,0.6-1.2,0.8
				s-1,0.4-1.7,0.6c-0.7,0.2-1.4,0.3-2.1,0.3c-2.1,0-3.9-0.7-5.3-2.1c-1.4-1.4-2.2-3.1-2.2-5c0-2,0.7-3.6,2.2-5
				c1.4-1.4,3.2-2.1,5.3-2.1c0.7,0,1.4,0.1,2.1,0.3c0.6,0.2,1.2,0.4,1.6,0.7c0.4,0.3,0.8,0.5,1.1,0.8c0.3,0.3,0.6,0.5,0.7,0.7
				l0.2,0.3l-1.9,1.9c0-0.1-0.1-0.1-0.2-0.2c-0.1-0.1-0.2-0.2-0.4-0.5c-0.2-0.2-0.5-0.4-0.8-0.6c-0.3-0.2-0.6-0.3-1.1-0.5
				c-0.4-0.1-0.9-0.2-1.4-0.2c-1.3,0-2.3,0.4-3.2,1.3c-0.9,0.9-1.3,1.9-1.3,3.2c0,1.3,0.4,2.3,1.3,3.2c0.9,0.9,1.9,1.3,3.2,1.3
				c0.6,0,1.2-0.1,1.7-0.3c0.5-0.2,0.9-0.4,1.1-0.5l0.3-0.2v-1.9h-2.4v-2.1H333.3z"/>
			<path class="st2" d="M192.7,75.4c0.6,0.2,1.2,0.4,1.6,0.7c0.4,0.3,0.8,0.5,1.1,0.8c0.3,0.3,0.6,0.5,0.7,0.7l0.2,0.3l-1.9,1.9
				c0-0.1-0.1-0.1-0.2-0.2c-0.1-0.1-0.2-0.3-0.4-0.5c-0.2-0.2-0.5-0.4-0.8-0.6c-0.3-0.2-0.6-0.3-1.1-0.5c-0.4-0.1-0.9-0.2-1.4-0.2
				c-1.3,0-2.3,0.4-3.2,1.3c-0.9,0.9-1.3,1.9-1.3,3.2c0,1.3,0.4,2.3,1.3,3.2c0.9,0.9,1.9,1.3,3.2,1.3c0.5,0,1-0.1,1.4-0.2
				c0.5-0.1,0.8-0.3,1.1-0.5c0.3-0.2,0.6-0.4,0.8-0.6c0.2-0.2,0.4-0.4,0.5-0.5l0.2-0.2l1.8,1.9c-0.1,0.1-0.1,0.2-0.2,0.3
				c-0.1,0.1-0.3,0.3-0.7,0.7c-0.4,0.3-0.7,0.6-1.2,0.8c-0.4,0.2-0.9,0.5-1.6,0.7s-1.4,0.3-2.1,0.3c-2.1,0-3.8-0.7-5.3-2.1
				c-1.4-1.4-2.2-3.1-2.2-5c0-2,0.7-3.6,2.2-5c1.4-1.4,3.2-2.1,5.3-2.1C191.4,75.1,192.1,75.2,192.7,75.4z"/>
			<path class="st2" d="M200.6,77.2c1.4-1.4,3.2-2.1,5.3-2.1s3.8,0.7,5.3,2.1c1.4,1.4,2.2,3.1,2.2,5c0,2-0.7,3.6-2.2,5
				c-1.4,1.4-3.2,2.1-5.3,2.1s-3.8-0.7-5.3-2.1c-1.4-1.4-2.2-3.1-2.2-5C198.4,80.3,199.1,78.6,200.6,77.2z M202.7,85.4
				c0.9,0.9,1.9,1.3,3.1,1.3c1.2,0,2.3-0.4,3.1-1.3c0.9-0.9,1.3-1.9,1.3-3.2c0-1.3-0.4-2.3-1.3-3.2c-0.9-0.9-1.9-1.3-3.1-1.3
				c-1.2,0-2.3,0.4-3.1,1.3c-0.9,0.9-1.3,1.9-1.3,3.2C201.4,83.5,201.9,84.6,202.7,85.4z"/>
			<path class="st2" d="M229,75.4v13.7h-2.5l-6.7-8.7v8.7h-2.9V75.4h2.5l6.7,8.7v-8.7H229z"/>
			<path class="st2" d="M238.6,84c-0.5-0.3-1-0.5-1.7-0.7c-0.7-0.2-1.3-0.4-2-0.7s-1.2-0.7-1.7-1.3c-0.5-0.6-0.7-1.3-0.7-2.2
				c0-1.1,0.4-2.1,1.3-2.8c0.9-0.8,2-1.2,3.5-1.2c0.6,0,1.1,0.1,1.6,0.2c0.5,0.1,0.9,0.3,1.3,0.5c0.3,0.2,0.6,0.4,0.9,0.5
				c0.3,0.2,0.4,0.3,0.5,0.5l0.2,0.2l-1.8,1.9c-0.1-0.1-0.2-0.2-0.3-0.3c-0.1-0.1-0.4-0.3-0.9-0.5c-0.4-0.2-0.9-0.3-1.4-0.3
				c-0.6,0-1,0.1-1.4,0.4c-0.3,0.3-0.5,0.6-0.5,1c0,0.5,0.2,0.8,0.7,1.1c0.5,0.3,1,0.5,1.7,0.7s1.3,0.4,2,0.7s1.2,0.7,1.7,1.3
				c0.5,0.6,0.7,1.3,0.7,2.2c0,1.3-0.5,2.3-1.4,3.1c-0.9,0.8-2.2,1.2-3.8,1.2c-0.6,0-1.3-0.1-1.8-0.2c-0.6-0.2-1.1-0.3-1.5-0.6
				c-0.4-0.2-0.7-0.4-1-0.7c-0.3-0.2-0.5-0.4-0.6-0.6l-0.2-0.2l1.8-1.8c0.1,0.1,0.2,0.2,0.4,0.4c0.2,0.2,0.5,0.4,1.1,0.7
				c0.6,0.3,1.1,0.4,1.8,0.4c0.7,0,1.3-0.2,1.7-0.5c0.4-0.3,0.6-0.8,0.6-1.3C239.3,84.6,239.1,84.2,238.6,84z"/>
			<path class="st2" d="M253.8,85.8c0.6-0.6,0.9-1.4,0.9-2.3v-8.1h2.9v8.1c0,1.7-0.6,3.1-1.7,4.2c-1.1,1.1-2.6,1.7-4.3,1.7
				s-3.1-0.6-4.3-1.7c-1.1-1.1-1.7-2.5-1.7-4.2v-8.1h2.9v8.1c0,0.9,0.3,1.7,0.9,2.3c0.6,0.6,1.3,0.9,2.1,0.9S253.3,86.4,253.8,85.8z
				"/>
			<path class="st2" d="M261.9,89.1V75.4h2.9v11.1h6.3v2.6H261.9z"/>
			<path class="st2" d="M282.4,75.4V78h-3.9v11h-2.9V78h-3.9v-2.6H282.4z"/>
			<path class="st2" d="M286.9,85.8l-1.2,3.2h-3.1l5.4-13.7h3.1l5.4,13.7h-3.1l-1.2-3.2H286.9z M289.5,78.8l-1.7,4.5h3.3L289.5,78.8
				z"/>
			<path class="st2" d="M311.4,75.4v13.7h-2.5l-6.7-8.7v8.7h-2.9V75.4h2.5l6.7,8.7v-8.7H311.4z"/>
			<path class="st2" d="M325.1,75.4V78h-3.9v11h-2.9V78h-3.9v-2.6H325.1z"/>
			<path class="st2" d="M333.7,84c-0.5-0.3-1-0.5-1.7-0.7c-0.7-0.2-1.3-0.4-2-0.7s-1.2-0.7-1.7-1.3c-0.5-0.6-0.7-1.3-0.7-2.2
				c0-1.1,0.4-2.1,1.3-2.8c0.9-0.8,2-1.2,3.5-1.2c0.6,0,1.1,0.1,1.6,0.2c0.5,0.1,0.9,0.3,1.3,0.5c0.3,0.2,0.6,0.4,0.9,0.5
				c0.3,0.2,0.4,0.3,0.5,0.5l0.2,0.2l-1.8,1.9c-0.1-0.1-0.2-0.2-0.3-0.3c-0.1-0.1-0.4-0.3-0.9-0.5c-0.4-0.2-0.9-0.3-1.4-0.3
				c-0.6,0-1,0.1-1.4,0.4c-0.3,0.3-0.5,0.6-0.5,1c0,0.5,0.2,0.8,0.7,1.1c0.5,0.3,1,0.5,1.7,0.7s1.3,0.4,2,0.7
				c0.7,0.3,1.2,0.7,1.7,1.3c0.5,0.6,0.7,1.3,0.7,2.2c0,1.3-0.5,2.3-1.4,3.1c-0.9,0.8-2.2,1.2-3.8,1.2c-0.6,0-1.3-0.1-1.8-0.2
				c-0.6-0.2-1.1-0.3-1.5-0.6c-0.4-0.2-0.7-0.4-1-0.7c-0.3-0.2-0.5-0.4-0.6-0.6l-0.2-0.2l1.8-1.8c0.1,0.1,0.2,0.2,0.4,0.4
				c0.2,0.2,0.5,0.4,1.1,0.7c0.6,0.3,1.1,0.4,1.8,0.4c0.7,0,1.3-0.2,1.7-0.5s0.6-0.8,0.6-1.3C334.4,84.6,334.2,84.2,333.7,84z"/>
		</g>
	</g>
</g>
</svg>
