<?xml version="1.0" encoding="utf-8"?>
<!-- Generator: Adobe Illustrator 27.0.0, SVG Export Plug-In . SVG Version: 6.00 Build 0)  -->
<svg version="1.1" id="Group_397" xmlns="http://www.w3.org/2000/svg" xmlns:xlink="http://www.w3.org/1999/xlink" x="0px" y="0px"
	 viewBox="0 0 276.5 82.4" style="enable-background:new 0 0 276.5 82.4;" xml:space="preserve">
<style type="text/css">
	.st0{fill:#FFFFFF;}
</style>
<g>
	<polygon class="st0" points="59.2,30.3 59.2,81.5 76.7,81.5 76.7,58.2 106,82 106,55.9 73.9,30.3 	"/>
	<polygon class="st0" points="105.9,0 20.5,0 20.1,0 0.1,20.5 0,20.6 30.6,20.6 30.6,81.5 48.5,81.5 48.5,20.6 105.9,20.6 	"/>
	<rect x="105.9" y="20.5" class="st0" width="20.5" height="20.5"/>
	<g>
		<g>
			<path class="st0" d="M157.4,20.7v2.2h-3.2v9.1h-2.4v-9.1h-3.2v-2.2H157.4z"/>
			<path class="st0" d="M160.3,22.2c1.2-1.1,2.6-1.7,4.3-1.7c1.7,0,3.2,0.6,4.3,1.7c1.2,1.1,1.8,2.5,1.8,4.1c0,1.6-0.6,3-1.8,4.1
				c-1.2,1.1-2.6,1.7-4.3,1.7c-1.7,0-3.2-0.6-4.3-1.7c-1.2-1.1-1.8-2.5-1.8-4.1C158.5,24.7,159.1,23.3,160.3,22.2z M162,29
				c0.7,0.7,1.6,1.1,2.6,1.1s1.9-0.4,2.6-1.1c0.7-0.7,1-1.6,1-2.6c0-1-0.3-1.9-1-2.6c-0.7-0.7-1.6-1.1-2.6-1.1s-1.9,0.4-2.6,1.1
				c-0.7,0.7-1,1.6-1,2.6C161,27.4,161.3,28.2,162,29z"/>
			<path class="st0" d="M178.3,20.7c1.2,0,2.1,0.4,2.9,1.1c0.8,0.7,1.1,1.6,1.1,2.7s-0.4,2-1.1,2.7c-0.8,0.7-1.7,1.1-2.9,1.1H176
				v3.7h-2.4V20.7H178.3z M176,22.9v3.2h2.2c0.5,0,0.9-0.2,1.2-0.5s0.5-0.7,0.5-1.1c0-0.4-0.2-0.8-0.5-1.1c-0.3-0.3-0.7-0.5-1.2-0.5
				H176z"/>
			<path class="st0" d="M199,20.7v11.2H197l-5.5-7.1v7.1H189V20.7h2.1l5.5,7.1v-7.1H199z"/>
			<path class="st0" d="M203.7,22.2c1.2-1.1,2.6-1.7,4.3-1.7c1.7,0,3.2,0.6,4.3,1.7c1.2,1.1,1.8,2.5,1.8,4.1c0,1.6-0.6,3-1.8,4.1
				c-1.2,1.1-2.6,1.7-4.3,1.7c-1.7,0-3.2-0.6-4.3-1.7c-1.2-1.1-1.8-2.5-1.8-4.1C201.9,24.7,202.5,23.3,203.7,22.2z M205.5,29
				c0.7,0.7,1.6,1.1,2.6,1.1c1,0,1.9-0.4,2.6-1.1c0.7-0.7,1-1.6,1-2.6c0-1-0.3-1.9-1-2.6c-0.7-0.7-1.6-1.1-2.6-1.1
				c-1,0-1.9,0.4-2.6,1.1c-0.7,0.7-1,1.6-1,2.6C204.4,27.4,204.8,28.2,205.5,29z"/>
			<path class="st0" d="M224.1,20.7v2.2h-3.2v9.1h-2.4v-9.1h-3.2v-2.2H224.1z"/>
			<path class="st0" d="M233,20.7c0.5,0.2,1,0.3,1.3,0.6c0.3,0.2,0.6,0.4,0.9,0.7c0.3,0.2,0.5,0.4,0.6,0.6l0.2,0.2l-1.5,1.5
				c0,0-0.1-0.1-0.1-0.2c-0.1-0.1-0.2-0.2-0.4-0.4c-0.2-0.2-0.4-0.3-0.6-0.5c-0.2-0.1-0.5-0.3-0.9-0.4c-0.4-0.1-0.7-0.2-1.1-0.2
				c-1,0-1.9,0.4-2.6,1.1c-0.7,0.7-1.1,1.6-1.1,2.6c0,1,0.4,1.9,1.1,2.6c0.7,0.7,1.6,1.1,2.6,1.1c0.4,0,0.8-0.1,1.2-0.2
				c0.4-0.1,0.7-0.2,0.9-0.4c0.2-0.2,0.5-0.3,0.6-0.5c0.2-0.2,0.3-0.3,0.4-0.4l0.1-0.2l1.4,1.5c0,0.1-0.1,0.1-0.2,0.2
				c-0.1,0.1-0.3,0.3-0.6,0.5c-0.3,0.3-0.6,0.5-0.9,0.7c-0.3,0.2-0.8,0.4-1.3,0.5c-0.5,0.2-1.1,0.2-1.7,0.2c-1.7,0-3.2-0.6-4.3-1.7
				c-1.2-1.1-1.8-2.5-1.8-4.1c0-1.6,0.6-3,1.8-4.1c1.2-1.1,2.6-1.7,4.3-1.7C231.9,20.5,232.4,20.6,233,20.7z"/>
			<path class="st0" d="M248.2,31.9h-2.4v-4.6H241v4.6h-2.4V20.7h2.4v4.5h4.8v-4.5h2.4V31.9z"/>
			<path class="st0" d="M158.1,50.3v2.2h-8.4V41.3h8.3v2.2h-5.8v2.2h4.6v2.2h-4.6v2.5H158.1z"/>
			<path class="st0" d="M171,41.3v11.2h-2.1l-5.5-7.1v7.1H161V41.3h2.1l5.5,7.1v-7.1H171z"/>
			<path class="st0" d="M184.9,46.4v4.2c0,0.1-0.1,0.1-0.2,0.2c-0.1,0.1-0.3,0.3-0.6,0.5c-0.3,0.2-0.6,0.5-1,0.7s-0.8,0.4-1.4,0.5
				c-0.6,0.2-1.1,0.2-1.7,0.2c-1.7,0-3.2-0.6-4.3-1.7c-1.2-1.1-1.8-2.5-1.8-4.1c0-1.6,0.6-3,1.8-4.1c1.2-1.1,2.6-1.7,4.3-1.7
				c0.6,0,1.2,0.1,1.7,0.2s1,0.3,1.3,0.6c0.3,0.2,0.6,0.4,0.9,0.7c0.3,0.2,0.5,0.4,0.6,0.6l0.2,0.2l-1.5,1.5c0,0-0.1-0.1-0.1-0.2
				c-0.1-0.1-0.2-0.2-0.4-0.4c-0.2-0.2-0.4-0.3-0.6-0.5c-0.2-0.1-0.5-0.3-0.9-0.4c-0.4-0.1-0.7-0.2-1.1-0.2c-1,0-1.9,0.4-2.6,1.1
				c-0.7,0.7-1.1,1.6-1.1,2.6c0,1,0.4,1.9,1.1,2.6c0.7,0.7,1.6,1.1,2.6,1.1c0.5,0,1-0.1,1.4-0.2c0.4-0.1,0.7-0.3,0.9-0.5l0.2-0.2
				v-1.5h-2v-1.8H184.9z"/>
			<path class="st0" d="M188.1,41.3h2.4v11.2h-2.4V41.3z"/>
			<path class="st0" d="M204.1,41.3v11.2H202l-5.5-7.1v7.1h-2.4V41.3h2.1l5.5,7.1v-7.1H204.1z"/>
			<path class="st0" d="M216,50.3v2.2h-8.4V41.3h8.3v2.2H210v2.2h4.6v2.2H210v2.5H216z"/>
			<path class="st0" d="M227.3,50.3v2.2h-8.4V41.3h8.3v2.2h-5.8v2.2h4.6v2.2h-4.6v2.5H227.3z"/>
			<path class="st0" d="M230.2,41.3h5c1.1,0,2,0.4,2.8,1.1s1.1,1.6,1.1,2.6c0,0.4-0.1,0.9-0.2,1.3c-0.1,0.4-0.3,0.7-0.5,0.9
				c-0.2,0.2-0.4,0.4-0.6,0.6c-0.2,0.2-0.4,0.3-0.5,0.4l-0.2,0.1l2.4,4.3h-2.6l-2.2-3.9h-2.1v3.9h-2.4V41.3z M236.2,43.9
				c-0.3-0.3-0.7-0.4-1.1-0.4h-2.5v3h2.5c0.4,0,0.8-0.1,1.1-0.4c0.3-0.3,0.4-0.6,0.4-1C236.6,44.5,236.5,44.1,236.2,43.9z"/>
			<path class="st0" d="M242.2,41.3h2.4v11.2h-2.4V41.3z"/>
			<path class="st0" d="M258.2,41.3v11.2h-2.1l-5.5-7.1v7.1h-2.4V41.3h2.1l5.5,7.1v-7.1H258.2z"/>
			<path class="st0" d="M272.1,46.4v4.2c0,0.1-0.1,0.1-0.2,0.2c-0.1,0.1-0.3,0.3-0.6,0.5c-0.3,0.2-0.6,0.5-1,0.7
				c-0.3,0.2-0.8,0.4-1.4,0.5c-0.6,0.2-1.1,0.2-1.7,0.2c-1.7,0-3.2-0.6-4.3-1.7c-1.2-1.1-1.8-2.5-1.8-4.1c0-1.6,0.6-3,1.8-4.1
				c1.2-1.1,2.6-1.7,4.3-1.7c0.6,0,1.2,0.1,1.7,0.2c0.5,0.2,1,0.3,1.3,0.6c0.3,0.2,0.6,0.4,0.9,0.7c0.3,0.2,0.5,0.4,0.6,0.6l0.2,0.2
				l-1.5,1.5c0,0-0.1-0.1-0.1-0.2c-0.1-0.1-0.2-0.2-0.4-0.4c-0.2-0.2-0.4-0.3-0.6-0.5c-0.2-0.1-0.5-0.3-0.9-0.4
				c-0.4-0.1-0.7-0.2-1.1-0.2c-1,0-1.9,0.4-2.6,1.1c-0.7,0.7-1.1,1.6-1.1,2.6c0,1,0.4,1.9,1.1,2.6c0.7,0.7,1.6,1.1,2.6,1.1
				c0.5,0,1-0.1,1.4-0.2c0.4-0.1,0.7-0.3,0.9-0.5l0.2-0.2v-1.5h-2v-1.8H272.1z"/>
			<path class="st0" d="M156.8,61.8c0.5,0.2,1,0.3,1.3,0.6c0.3,0.2,0.6,0.4,0.9,0.7c0.3,0.2,0.5,0.4,0.6,0.6l0.2,0.2l-1.5,1.5
				c0,0-0.1-0.1-0.1-0.2c-0.1-0.1-0.2-0.2-0.4-0.4c-0.2-0.2-0.4-0.3-0.6-0.5c-0.2-0.1-0.5-0.3-0.9-0.4c-0.4-0.1-0.7-0.2-1.1-0.2
				c-1,0-1.9,0.4-2.6,1.1c-0.7,0.7-1.1,1.6-1.1,2.6c0,1,0.4,1.9,1.1,2.6c0.7,0.7,1.6,1.1,2.6,1.1c0.4,0,0.8-0.1,1.2-0.2
				c0.4-0.1,0.7-0.2,0.9-0.4c0.2-0.2,0.5-0.3,0.6-0.5c0.2-0.2,0.3-0.3,0.4-0.4l0.1-0.2l1.4,1.5c0,0.1-0.1,0.1-0.2,0.2
				c-0.1,0.1-0.3,0.3-0.6,0.5c-0.3,0.3-0.6,0.5-0.9,0.7c-0.3,0.2-0.8,0.4-1.3,0.5c-0.5,0.2-1.1,0.2-1.7,0.2c-1.7,0-3.2-0.6-4.3-1.7
				c-1.2-1.1-1.8-2.5-1.8-4.1c0-1.6,0.6-3,1.8-4.1c1.2-1.1,2.6-1.7,4.3-1.7C155.7,61.6,156.3,61.6,156.8,61.8z"/>
			<path class="st0" d="M163.2,63.3c1.2-1.1,2.6-1.7,4.3-1.7c1.7,0,3.2,0.6,4.3,1.7c1.2,1.1,1.8,2.5,1.8,4.1c0,1.6-0.6,3-1.8,4.1
				c-1.2,1.1-2.6,1.7-4.3,1.7c-1.7,0-3.2-0.6-4.3-1.7c-1.2-1.1-1.8-2.5-1.8-4.1C161.5,65.8,162.1,64.4,163.2,63.3z M165,70
				c0.7,0.7,1.6,1.1,2.6,1.1c1,0,1.9-0.4,2.6-1.1c0.7-0.7,1-1.6,1-2.6c0-1-0.3-1.9-1-2.6c-0.7-0.7-1.6-1.1-2.6-1.1
				c-1,0-1.9,0.4-2.6,1.1c-0.7,0.7-1,1.6-1,2.6C164,68.5,164.3,69.3,165,70z"/>
			<path class="st0" d="M186.6,61.8V73h-2.1l-5.5-7.1V73h-2.4V61.8h2.1l5.5,7.1v-7.1H186.6z"/>
			<path class="st0" d="M194.4,68.8c-0.4-0.2-0.8-0.4-1.4-0.6c-0.5-0.2-1.1-0.3-1.6-0.5c-0.5-0.2-1-0.6-1.4-1
				c-0.4-0.5-0.6-1.1-0.6-1.8c0-0.9,0.4-1.7,1.1-2.3c0.7-0.6,1.7-1,2.8-1c0.5,0,0.9,0.1,1.3,0.2c0.4,0.1,0.8,0.2,1.1,0.4
				c0.3,0.1,0.5,0.3,0.7,0.4c0.2,0.1,0.4,0.3,0.4,0.4l0.1,0.2l-1.4,1.5c-0.1-0.1-0.1-0.2-0.3-0.3c-0.1-0.1-0.3-0.2-0.7-0.4
				c-0.4-0.2-0.7-0.3-1.1-0.3c-0.5,0-0.8,0.1-1.1,0.4c-0.3,0.2-0.4,0.5-0.4,0.9c0,0.4,0.2,0.7,0.6,0.9c0.4,0.2,0.8,0.4,1.4,0.6
				c0.5,0.2,1.1,0.3,1.6,0.5c0.5,0.2,1,0.6,1.4,1c0.4,0.5,0.6,1.1,0.6,1.8c0,1-0.4,1.9-1.1,2.5c-0.8,0.7-1.8,1-3.1,1
				c-0.5,0-1-0.1-1.5-0.2c-0.5-0.1-0.9-0.3-1.2-0.5c-0.3-0.2-0.6-0.4-0.8-0.5c-0.2-0.2-0.4-0.3-0.5-0.5l-0.2-0.2l1.4-1.4
				c0.1,0.1,0.2,0.2,0.3,0.3c0.1,0.1,0.4,0.3,0.9,0.5c0.5,0.2,0.9,0.3,1.4,0.3c0.6,0,1-0.1,1.4-0.4c0.3-0.3,0.5-0.6,0.5-1
				C195,69.4,194.8,69.1,194.4,68.8z"/>
			<path class="st0" d="M206.9,70.3c0.5-0.5,0.7-1.1,0.7-1.9v-6.7h2.4v6.7c0,1.4-0.5,2.5-1.4,3.4c-0.9,0.9-2.1,1.4-3.5,1.4
				c-1.4,0-2.6-0.5-3.5-1.4c-0.9-0.9-1.4-2.1-1.4-3.4v-6.7h2.4v6.7c0,0.7,0.2,1.4,0.7,1.9c0.5,0.5,1.1,0.8,1.8,0.8
				S206.4,70.9,206.9,70.3z"/>
			<path class="st0" d="M213.5,73V61.8h2.4v9.1h5.2V73H213.5z"/>
			<path class="st0" d="M230.3,61.8V64h-3.2V73h-2.4V64h-3.2v-2.2H230.3z"/>
			<path class="st0" d="M234,70.4l-1,2.6h-2.6l4.4-11.2h2.6l4.4,11.2h-2.6l-1-2.6H234z M236.2,64.6l-1.4,3.7h2.7L236.2,64.6z"/>
			<path class="st0" d="M254.1,61.8V73H252l-5.5-7.1V73h-2.4V61.8h2.1l5.5,7.1v-7.1H254.1z"/>
			<path class="st0" d="M265.3,61.8V64h-3.2V73h-2.4V64h-3.2v-2.2H265.3z"/>
			<path class="st0" d="M272.4,68.8c-0.4-0.2-0.8-0.4-1.4-0.6c-0.5-0.2-1.1-0.3-1.6-0.5c-0.5-0.2-1-0.6-1.4-1
				c-0.4-0.5-0.6-1.1-0.6-1.8c0-0.9,0.4-1.7,1.1-2.3c0.7-0.6,1.7-1,2.8-1c0.5,0,0.9,0.1,1.3,0.2c0.4,0.1,0.8,0.2,1.1,0.4
				c0.3,0.1,0.5,0.3,0.7,0.4c0.2,0.1,0.4,0.3,0.4,0.4l0.1,0.2l-1.4,1.5c-0.1-0.1-0.1-0.2-0.3-0.3c-0.1-0.1-0.3-0.2-0.7-0.4
				c-0.4-0.2-0.7-0.3-1.1-0.3c-0.5,0-0.8,0.1-1.1,0.4c-0.3,0.2-0.4,0.5-0.4,0.9c0,0.4,0.2,0.7,0.6,0.9c0.4,0.2,0.8,0.4,1.4,0.6
				c0.5,0.2,1.1,0.3,1.6,0.5c0.5,0.2,1,0.6,1.4,1c0.4,0.5,0.6,1.1,0.6,1.8c0,1-0.4,1.9-1.1,2.5c-0.8,0.7-1.8,1-3.1,1
				c-0.5,0-1-0.1-1.5-0.2c-0.5-0.1-0.9-0.3-1.2-0.5c-0.3-0.2-0.6-0.4-0.8-0.5c-0.2-0.2-0.4-0.3-0.5-0.5l-0.2-0.2l1.4-1.4
				c0.1,0.1,0.2,0.2,0.3,0.3c0.1,0.1,0.4,0.3,0.9,0.5c0.5,0.2,0.9,0.3,1.4,0.3c0.6,0,1-0.1,1.4-0.4c0.3-0.3,0.5-0.6,0.5-1
				C273,69.4,272.8,69.1,272.4,68.8z"/>
		</g>
	</g>
</g>
</svg>
